<svg xmlns="http://www.w3.org/2000/svg" style="display: none">
  
  <!-- icon-FocusFrame -->
  <symbol id="icon-FocusFrame" viewBox="0 0 233 32">
    <!-- Çok uzun olduğu için içerik değiştirilmedi -->
    <path fill="#fff" style="fill: var(--color1, #fff)" d="M19.471 17.348h-13.192v12.649h-6.28v-29.997h21.368v5.24h-15.089v6.822h13.192v5.286z"></path>
    <!-- Diğer path'ler burada devam ediyor (kısaltıldı) -->
  </symbol>

  <!-- icon-star -->
  <symbol id="icon-star" viewBox="0 0 34 32">
    <path stroke-linejoin="round" stroke-linecap="round" stroke-miterlimit="4" stroke-width="2.5263" d="M16.842 2.807l4.337 8.786 9.698 1.418-7.018 6.835 1.656 9.656-8.674-4.562-8.674 4.562 1.656-9.656-7.018-6.835 9.698-1.418 4.337-8.786z"></path>
  </symbol>

  <!-- icon-camera -->
  <symbol id="icon-camera" viewBox="0 0 43 32">
    <path fill="currentColor" opacity="0.4" d="M5.333 5.333c-1.414 0-2.771 0.562-3.771 1.562s-1.562 2.357-1.562 3.771v16c0 1.414 0.562 2.771 1.562 3.771s2.357 1.562 3.771 1.562h32c1.414 0 2.771-0.562 3.771-1.562s1.562-2.357 1.562-3.771v-16c0-1.414-0.562-2.771-1.562-3.771s-2.357-1.562-3.771-1.562h-3.125c-1.414 0-2.771-0.562-3.771-1.563l-2.208-2.208c-1-1-2.356-1.562-3.771-1.563h-6.251c-1.414 0-2.771 0.562-3.771 1.563l-2.208 2.208c-1 1-2.356 1.562-3.771 1.563h-3.125zM6.667 10.667c-0.354 0-0.693-0.14-0.943-0.391s-0.391-0.589-0.391-0.943c0-0.354 0.14-0.693 0.391-0.943s0.589-0.391 0.943-0.391c0.354 0 0.693 0.14 0.943 0.391s0.391 0.589 0.391 0.943c0 0.354-0.14 0.693-0.391 0.943s-0.589 0.391-0.943 0.391zM30.667 17.333c0 2.475-0.983 4.849-2.734 6.6s-4.124 2.734-6.6 2.734c-2.475 0-4.849-0.983-6.6-2.734s-2.734-4.124-2.734-6.6c0-2.475 0.983-4.849 2.734-6.6s4.124-2.734 6.6-2.734c2.475 0 4.849 0.983 6.6 2.734s2.734 4.124 2.734 6.6z" />
  </symbol>

  <!-- icon-arrow -->
  <symbol id="icon-arrow" viewBox="0 0 32 32">
    <path d="M32 16c0 8.837-7.163 16-16 16s-16-7.163-16-16c0-8.837 7.163-16 16-16s16 7.163 16 16z"></path>
    <path fill="none" stroke="#777" style="stroke: var(--color1, #777)" stroke-linejoin="round" stroke-linecap="round" stroke-miterlimit="4" stroke-width="1.3" d="M11 21l10-10"></path>
    <path fill="none" stroke="#777" style="stroke: var(--color1, #777)" stroke-linejoin="round" stroke-linecap="round" stroke-miterlimit="4" stroke-width="1.3" d="M14.333 11h6.667v6.667"></path>
  </symbol>



<symbol id="icon-star" viewBox="0 0 34 32">
<path stroke-linejoin="round" stroke-linecap="round" stroke-miterlimit="4" stroke-width="2.5263" d="M16.842 2.807l4.337 8.786 9.698 1.418-7.018 6.835 1.656 9.656-8.674-4.562-8.674 4.562 1.656-9.656-7.018-6.835 9.698-1.418 4.337-8.786z"></path>
</symbol>

</svg>
